{"title":"Bow Wow ft Sean Kingstron - Put That On My Hood [KingPinVideos]","uid":5740212,"size":72086797,"categoryP":"other","categoryS":"other","magnet":"?xt=urn:btih:c462bfcdbbc01fc34e13daf61200443f2a832e9e&amp;dn=Bow+Wow+ft+Sean+Kingstron+-+Put+That+On+My+Hood+%5BKingPinVideos%5D&amp;tr=udp%3A%2F%2Ftracker.openbittorrent.com%3A80&amp;tr=udp%3A%2F%2Fopen.demonii.com%3A1337&amp;tr=udp%3A%2F%2Ftracker.coppersurfer.tk%3A6969&amp;tr=udp%3A%2F%2Fexodus.desync.com%3A6969","seeders":0,"leechers":0,"uploader":"KingPinMan","files":4,"time":1280979949,"description":"[img]http://a.imageshack.us/img130/4980/bowwowhood2.png[/img]\n\n[img]http://a.imageshack.us/img197/2026/bowwowhood.png[/img]\n\n[code]General\nComplete name                    : Bow Wow ft Sean Kingstron - Put That On My Hood [KingPinVideos].mpg\nFormat                           : MPEG-PS\nFile size                        : 68.6 MiB\nDuration                         : 3mn 17s\nOverall bit rate                 : 2 920 Kbps\nWriting library                  : encoded by TMPGEnc 4.0 XPress Version. 4.7.4.299\n\nVideo\nID                               : 224 (0xE0)\nFormat                           : MPEG Video\nFormat version                   : Version 1\nFormat settings, BVOP            : Yes\nFormat settings, Matrix          : Default\nDuration                         : 3mn 17s\nBit rate mode                    : Constant\nBit rate                         : 2 612 Kbps\nNominal bit rate                 : 2 700 Kbps\nWidth                            : 384 pixels\nHeight                           : 208 pixels\nDisplay aspect ratio             : 16:9\nFrame rate                       : 29.970 fps\nResolution                       : 8 bits\nScan type                        : Progressive\nBits/(Pixel*Frame)               : 1.091\nStream size                      : 61.4 MiB (89%)\nWriting library                  : TMPGEnc XPress 4.7.4.299\n\nAudio\nID                               : 192 (0xC0)\nFormat                           : MPEG Audio\nFormat version                   : Version 1\nFormat profile                   : Layer 2\nDuration                         : 3mn 17s\nBit rate mode                    : Constant\nBit rate                         : 192 Kbps\nChannel(s)                       : 2 channels\nSampling rate                    : 48.0 KHz\nStream size                      : 4.51 MiB (7%)\n\n[/code]","torrent":{"xt":"urn:btih:c462bfcdbbc01fc34e13daf61200443f2a832e9e","amp;dn":"Bow+Wow+ft+Sean+Kingstron+-+Put+That+On+My+Hood+%5BKingPinVideos%5D","amp;tr":["udp%3A%2F%2Ftracker.openbittorrent.com%3A80","udp%3A%2F%2Fopen.demonii.com%3A1337","udp%3A%2F%2Ftracker.coppersurfer.tk%3A6969","udp%3A%2F%2Fexodus.desync.com%3A6969"],"infoHash":"c462bfcdbbc01fc34e13daf61200443f2a832e9e","infoHashBuffer":{"type":"Buffer","data":[196,98,191,205,187,192,31,195,78,19,218,246,18,0,68,63,42,131,46,158]},"announce":[],"urlList":[]}}